<?xml version="1.0" encoding="utf-8"?>
<!-- Generator: Adobe Illustrator 16.0.0, SVG Export Plug-In . SVG Version: 6.00 Build 0)  -->
<!DOCTYPE svg PUBLIC "-//W3C//DTD SVG 1.1//EN" "http://www.w3.org/Graphics/SVG/1.1/DTD/svg11.dtd">
<svg version="1.1" id="Layer_1" xmlns="http://www.w3.org/2000/svg" xmlns:xlink="http://www.w3.org/1999/xlink" x="0px" y="0px"
	 width="1044.66px" height="1085.881px" viewBox="0 0 1044.66 1085.881" enable-background="new 0 0 1044.66 1085.881"
	 xml:space="preserve">
<g>
	<rect fill="none" width="1044.66" height="1085.881"/>
	<g>
		<g>
			<g>
				<linearGradient id="SVGID_1_" gradientUnits="userSpaceOnUse" x1="316.8062" y1="1040.6006" x2="792.4902" y2="564.9166">
					<stop  offset="0" style="stop-color:#A17800"/>
					<stop  offset="0.0333" style="stop-color:#AC8600"/>
					<stop  offset="0.1079" style="stop-color:#C19F01"/>
					<stop  offset="0.176" style="stop-color:#CEAE01"/>
					<stop  offset="0.2312" style="stop-color:#D2B301"/>
					<stop  offset="0.4946" style="stop-color:#FFD600"/>
					<stop  offset="1" style="stop-color:#FFD62D"/>
				</linearGradient>
				<path fill="url(#SVGID_1_)" d="M840.826,627.555c-7.873,0-14.93,3.109-19.273,10.777v-44.354h-26.727l-0.008,117.314
					c0,8.695,0.213,20.516-0.213,27.146h25.08c0.205-2.484,0.625-5.602,0.625-9.328c2.484,5.387,7.461,10.982,18.023,10.982
					c21.354,0,25.286-16.789,25.286-40.414v-39.584C863.62,639.992,857.195,627.555,840.826,627.555z M837.1,702.789
					c0,10.775-3.109,14.297-7.666,14.297c-5.396,0-7.881-3.727-7.881-13.887v-38.135c0-9.533,1.662-14.297,8.086-14.297
					c6.416,0,7.461,5.596,7.461,13.68V702.789z M695.549,593.979h-26.734v144.461h26.734V593.979z M732.641,740.094
					c8.496,0,15.965-2.279,20.721-11.195c0,2.49,0.419,7.057,0.838,9.541h25.484c-0.205-6.021-0.205-16.369-0.205-34.615v-74.607
					h-26.529v73.572c0,10.57-2.278,14.297-8.078,14.297c-5.182,0-7.255-3.727-7.255-11.393v-76.477H710.89v82.686
					C710.89,734.91,721.871,740.102,732.641,740.094z M631.93,706.721c0,7.256-1.036,12.025-6.432,12.025
					c-5.381,0-6.417-4.77-6.417-11.188v-47.463c0-7.049,1.448-11.195,6.417-11.195c5.182,0,6.432,4.146,6.432,11.402v6.621h25.484
					v-5.379c0-15.135-3.514-33.99-31.916-33.99c-25.896,0-32.945,17.209-32.945,36.063v37.51c0,23.838,6.227,38.975,31.908,38.975
					c26.948,0,32.755-15.762,32.755-36.482v-3.939H631.93V706.721z M409.994,807.156c0,22.748,0,42.373,1.053,60.32h-0.428
					c-1.044-6.051-2.5-14.404-5.426-24.838l-20.455-77.223h-21.91v139.418h17.527v-42.998c0-25.256-0.206-45.496-1.044-62.398h0.213
					c0.831,4.176,1.875,10.014,3.75,17.32l22.969,88.076h21.079V765.416h-17.33V807.156z M224.449,866.637h-0.213
					c-1.875-18.777-8.969-63.443-15.44-101.221H181.04v139.418h17.109v-51.549c0-24.006-0.617-55.525-1.044-71.803h0.427
					c3.125,25.256,12.315,87.244,17.315,123.352h17.741c6.684-40.91,15.661-99.346,18.999-123.139h0.206
					c-0.419,15.439-0.831,44.033-0.831,68.664v54.475h17.939V765.416h-26.916C235.506,801.105,226.537,847.859,224.449,866.637z
					 M301.884,765.416l-22.756,139.418h18.991l5.64-40.285h22.329l6.264,40.285h19.617L328.39,765.416H301.884z M306.267,847.227
					c3.131-22.535,7.719-53.018,8.344-64.281h0.625c1.463,14.609,4.801,37.777,8.566,64.281H306.267z M491.188,821.561h-25.469
					v-56.15H446.94v139.424h18.778v-65.951h25.469v65.951h18.777V765.41h-18.777V821.561z M544.197,765.41l-22.755,139.424h18.991
					l5.639-40.285h22.33l6.264,40.285h19.625L570.703,765.41H544.197z M548.58,847.227c3.133-22.535,7.72-53.018,8.346-64.281h0.625
					c1.463,14.609,4.801,37.77,8.564,64.281H548.58z M738.089,765.41l-22.757,139.424h19l5.631-40.285h22.338l6.256,40.285h19.624
					L764.594,765.41H738.089z M742.471,847.221c3.125-22.537,7.721-53.012,8.345-64.275h0.633
					c1.456,14.602,4.802,37.77,8.551,64.275H742.471z M846.199,807.148c0,22.756,0,42.373,1.043,60.328h-0.418
					c-1.037-6.051-2.5-14.404-5.426-24.844l-20.455-77.223h-21.91v139.424h17.535v-42.998c0-25.256-0.213-45.496-1.051-62.398h0.213
					c0.838,4.168,1.875,10.014,3.758,17.314l22.961,88.082h21.072V765.41h-17.322V807.148z M720.973,765.41h-63.658v17.32h22.535
					v122.104h18.588V782.73h22.535V765.41z M587.82,782.73h22.543v122.104h18.564V782.73h22.549v-17.32H587.82V782.73z"/>
			</g>
		</g>
		<linearGradient id="SVGID_2_" gradientUnits="userSpaceOnUse" x1="179.3853" y1="736.8613" x2="733.5457" y2="182.7009">
			<stop  offset="0" style="stop-color:#A17800"/>
			<stop  offset="0.0333" style="stop-color:#AC8600"/>
			<stop  offset="0.1079" style="stop-color:#C19F01"/>
			<stop  offset="0.176" style="stop-color:#CEAE01"/>
			<stop  offset="0.2312" style="stop-color:#D2B301"/>
			<stop  offset="0.4946" style="stop-color:#FFD600"/>
			<stop  offset="1" style="stop-color:#FFD62D"/>
		</linearGradient>
		<path fill="url(#SVGID_2_)" d="M346.787,181.047v172.361H181.04v385.107h385.099V566.146h165.754V181.047H346.787z
			 M491.172,324.533v173.131H325.494v96.42H421.7v-69.525h21.231v90.773H304.224V476.518h165.663V304.17h138.846v138.761h-42.594
			v-20.775h21.56v-97.624H491.172z M442.992,277.269v172.354H277.33v192.609h192.504V524.559h21.338v138.891H256.083V428.406
			h165.724V256.068H656.85v235.043h-90.711v-21.277h69.487V277.269H442.992z M394.798,524.559v42.623h-42.403v-42.623H394.798z
			 M704.999,539.252h-138.86v-21.24h117.605V229.166H394.913v172.338H229.189v288.84h288.885V351.435h21.17v360.178h-331.31v-331.31
			H373.62v-0.731h0.069V207.95h331.311V539.252z"/>
		<g>
			<g>
				<path d="M491.172,324.533h96.526v97.624h-21.56v20.775h42.594V304.17H469.887v172.347H304.224v138.814h138.708v-90.773H421.7
					v69.525h-96.207v-96.42h165.678V324.533z M566.139,469.834v21.277h90.711V256.068H421.807v172.338H256.083v235.043h235.089
					V524.559h-21.338v117.674H277.33V449.623h165.662V277.269h192.634v192.565H566.139z M394.798,567.182v-42.623h-42.403v42.623
					H394.798z M373.688,207.95v171.622h-0.069v0.731H207.934v331.31h331.31V351.435h-21.17v338.909H229.189v-288.84h165.724V229.166
					h288.832v288.846H566.139v21.24h138.86V207.95H373.688z"/>
			</g>
		</g>
	</g>
</g>
</svg>
